<svg width="24" height="24" viewBox="0 0 24 24" fill="none" xmlns="http://www.w3.org/2000/svg">
<path d="M12 23.9883C13.6392 23.9883 15.1824 23.6747 16.6294 23.0475C18.0765 22.4204 19.3529 21.5542 20.4588 20.4488C21.5647 19.3435 22.4314 18.0677 23.0588 16.6213C23.6863 15.175 24 13.6326 24 11.9941C24 10.3557 23.6863 8.81334 23.0588 7.36699C22.4314 5.92064 21.5647 4.64479 20.4588 3.53944C19.3529 2.4341 18.0745 1.56786 16.6235 0.940717C15.1725 0.313572 13.6274 0 11.9882 0C10.349 0 8.80587 0.313572 7.35882 0.940717C5.91176 1.56786 4.63725 2.4341 3.53529 3.53944C2.43333 4.64479 1.56863 5.92064 0.941175 7.36699C0.313725 8.81334 0 10.3557 0 11.9941C0 13.6326 0.313725 15.175 0.941175 16.6213C1.56863 18.0677 2.43529 19.3435 3.54117 20.4488C4.64706 21.5542 5.92352 22.4204 7.37057 23.0475C8.81763 23.6747 10.3608 23.9883 12 23.9883ZM12 21.9892C10.6118 21.9892 9.31371 21.7306 8.10588 21.2132C6.89803 20.6958 5.83725 19.9805 4.92352 19.0672C4.0098 18.1539 3.29608 17.0937 2.78235 15.8864C2.26862 14.6792 2.01176 13.3817 2.01176 11.9941C2.01176 10.6066 2.26862 9.30918 2.78235 8.10193C3.29608 6.89468 4.00784 5.83245 4.91764 4.91525C5.82744 3.99804 6.88626 3.28271 8.09411 2.76923C9.30195 2.25576 10.6 1.99903 11.9882 1.99903C13.3765 1.99903 14.6745 2.25576 15.8823 2.76923C17.0902 3.28271 18.1529 3.99804 19.0706 4.91525C19.9883 5.83245 20.7059 6.89468 21.2235 8.10193C21.7411 9.30918 22 10.6066 22 11.9941C22 13.3817 21.7431 14.6792 21.2294 15.8864C20.7157 17.0937 20.0019 18.1539 19.0882 19.0672C18.1745 19.9805 17.1117 20.6958 15.8999 21.2132C14.6882 21.7306 13.3883 21.9892 12 21.9892ZM20.047 19.7433L20.0117 19.614C19.8157 19.0339 19.3588 18.4655 18.6411 17.9088C17.9235 17.3523 16.998 16.8937 15.8646 16.5331C14.7313 16.1725 13.4431 15.9921 12 15.9921C10.5647 15.9921 9.28038 16.1725 8.14705 16.5331C7.01372 16.8937 6.08626 17.3523 5.36469 17.9088C4.64313 18.4655 4.18431 19.0299 3.98823 19.6022L3.95294 19.7433C4.65882 20.441 5.49411 21.0368 6.45882 21.5307C7.42352 22.0246 8.39803 22.4028 9.38235 22.6654C10.3667 22.928 11.2392 23.0593 12 23.0593C12.7686 23.0593 13.6432 22.928 14.6235 22.6654C15.6039 22.4028 16.5745 22.0246 17.5353 21.5307C18.4961 21.0368 19.3333 20.441 20.047 19.7433ZM12 13.9932C12.7529 14.001 13.4353 13.811 14.0471 13.4229C14.6588 13.0349 15.1431 12.5037 15.5 11.8295C15.8568 11.1553 16.0352 10.3988 16.0352 9.56003C16.0352 8.76826 15.8548 8.04313 15.4941 7.38463C15.1333 6.72613 14.649 6.19894 14.0412 5.80305C13.4333 5.40716 12.7529 5.20922 12 5.20922C11.247 5.20922 10.5647 5.40716 9.95293 5.80305C9.34117 6.19894 8.85489 6.72613 8.49411 7.38463C8.13332 8.04313 7.95685 8.76826 7.9647 9.56003C7.97254 10.3988 8.15489 11.1514 8.51175 11.8178C8.86862 12.4841 9.35097 13.0113 9.95881 13.3993C10.5667 13.7874 11.247 13.9853 12 13.9932Z" fill="#D6001C"/>
</svg>
