<svg width="24" height="18" viewBox="0 0 24 18" fill="none" xmlns="http://www.w3.org/2000/svg">
<path d="M6.76531 2.55899H23.0353C23.3053 2.55899 23.5336 2.46466 23.7201 2.27601C23.9067 2.08735 24 1.85359 24 1.57471C24 1.29583 23.9067 1.06001 23.7201 0.867258C23.5336 0.674503 23.3053 0.578125 23.0353 0.578125H6.76531C6.49533 0.578125 6.26704 0.674503 6.08044 0.867258C5.89384 1.06001 5.80054 1.29583 5.80054 1.57471C5.80054 1.85359 5.89384 2.08735 6.08044 2.27601C6.26704 2.46466 6.49533 2.55899 6.76531 2.55899ZM6.76531 10.0026H23.0353C23.3053 10.0026 23.5336 9.90622 23.7201 9.71347C23.9067 9.52072 24 9.2849 24 9.00602C24 8.72714 23.9067 8.49338 23.7201 8.30472C23.5336 8.11607 23.3053 8.02174 23.0353 8.02174H6.76531C6.49533 8.02174 6.26704 8.11607 6.08044 8.30472C5.89384 8.49338 5.80054 8.72714 5.80054 9.00602C5.80054 9.2849 5.89384 9.52072 6.08044 9.71347C6.26704 9.90622 6.49533 10.0026 6.76531 10.0026ZM6.76531 17.4339H23.0353C23.3053 17.4339 23.5336 17.3396 23.7201 17.151C23.9067 16.9623 24 16.7285 24 16.4496C24 16.1707 23.9067 15.9349 23.7201 15.7422C23.5336 15.5494 23.3053 15.453 23.0353 15.453H6.76531C6.49533 15.453 6.26704 15.5494 6.08044 15.7422C5.89384 15.9349 5.80054 16.1707 5.80054 16.4496C5.80054 16.7285 5.89384 16.9623 6.08044 17.151C6.26704 17.3396 6.49533 17.4339 6.76531 17.4339Z" fill="#D6001C"/>
<path d="M1.50075 3.11259C1.91365 3.11259 2.267 2.9629 2.5608 2.66352C2.8546 2.36413 3.0015 2.00117 3.0015 1.57465C3.0015 1.13993 2.8546 0.772877 2.5608 0.473492C2.267 0.174107 1.91365 0.0244141 1.50075 0.0244141C1.08784 0.0244141 0.734492 0.174107 0.440695 0.473492C0.146898 0.772877 0 1.13993 0 1.57465C0 2.00117 0.146898 2.36413 0.440695 2.66352C0.734492 2.9629 1.08784 3.11259 1.50075 3.11259ZM1.50075 10.5562C1.91365 10.5562 2.267 10.4045 2.5608 10.101C2.8546 9.79749 3.0015 9.43249 3.0015 9.00597C3.0015 8.57944 2.8546 8.21444 2.5608 7.91096C2.267 7.60747 1.91365 7.45573 1.50075 7.45573C1.08784 7.45573 0.734492 7.60747 0.440695 7.91096C0.146898 8.21444 0 8.57944 0 9.00597C0 9.43249 0.146898 9.79749 0.440695 10.101C0.734492 10.4045 1.08784 10.5562 1.50075 10.5562ZM1.50075 17.9998C1.91365 17.9998 2.267 17.8481 2.5608 17.5446C2.8546 17.2412 3.0015 16.8761 3.0015 16.4495C3.0015 16.0149 2.8546 15.6478 2.5608 15.3484C2.267 15.049 1.91365 14.8994 1.50075 14.8994C1.08784 14.8994 0.734492 15.049 0.440695 15.3484C0.146898 15.6478 0 16.0149 0 16.4495C0 16.8761 0.146898 17.2412 0.440695 17.5446C0.734492 17.8481 1.08784 17.9998 1.50075 17.9998Z" fill="#D6001C"/>
</svg>
