<svg width="29" height="18" viewBox="0 0 29 18" fill="none" xmlns="http://www.w3.org/2000/svg">
<path d="M6.19141 6.89453C6.19141 6.65364 6.26302 6.46159 6.40625 6.31836C6.54948 6.17513 6.74804 6.10352 7.00195 6.10352H8.75977V4.39453C8.75977 4.14714 8.82813 3.95182 8.96484 3.80859C9.10156 3.66536 9.29036 3.59375 9.53125 3.59375C9.77214 3.59375 9.96095 3.66536 10.0977 3.80859C10.2344 3.95182 10.3027 4.14714 10.3027 4.39453V6.10352H11.9531C12.2266 6.10352 12.4398 6.17513 12.5928 6.31836C12.7458 6.46159 12.8223 6.65364 12.8223 6.89453C12.8223 7.14844 12.7458 7.34863 12.5928 7.49512C12.4398 7.6416 12.2266 7.71484 11.9531 7.71484H10.3027V9.42383C10.3027 9.67122 10.2344 9.86815 10.0977 10.0146C9.96095 10.1611 9.77214 10.2344 9.53125 10.2344C9.29036 10.2344 9.10156 10.1611 8.96484 10.0146C8.82813 9.86815 8.75977 9.67122 8.75977 9.42383V7.71484H7.00195C6.74804 7.71484 6.54948 7.6416 6.40625 7.49512C6.26302 7.34863 6.19141 7.14844 6.19141 6.89453ZM15.791 8.26172C15.791 7.86459 15.9277 7.5293 16.2012 7.25586C16.4746 6.98242 16.8066 6.8457 17.1973 6.8457C17.5944 6.8457 17.9281 6.98242 18.1982 7.25586C18.4684 7.5293 18.6035 7.86459 18.6035 8.26172C18.6035 8.65885 18.4684 8.99251 18.1982 9.2627C17.9281 9.53288 17.5944 9.66797 17.1973 9.66797C16.8066 9.66797 16.4746 9.53288 16.2012 9.2627C15.9277 8.99251 15.791 8.65885 15.791 8.26172ZM18.6719 5.37109C18.6719 4.97396 18.807 4.63867 19.0771 4.36523C19.3473 4.0918 19.6777 3.95508 20.0684 3.95508C20.4655 3.95508 20.7992 4.0918 21.0693 4.36523C21.3395 4.63867 21.4746 4.97396 21.4746 5.37109C21.4746 5.76823 21.3395 6.10026 21.0693 6.36719C20.7992 6.63412 20.4655 6.76758 20.0684 6.76758C19.6777 6.76758 19.3473 6.63412 19.0771 6.36719C18.807 6.10026 18.6719 5.76823 18.6719 5.37109ZM3.7207 17.7051C4.39127 17.7051 4.96907 17.5814 5.4541 17.334C5.93913 17.0866 6.38672 16.709 6.79688 16.2012L8.56445 14.0625C8.69466 13.9062 8.83138 13.7923 8.97461 13.7207C9.11784 13.6491 9.26107 13.6133 9.4043 13.6133H18.7891C18.9323 13.6133 19.0755 13.6491 19.2188 13.7207C19.362 13.7923 19.4987 13.9062 19.6289 14.0625L21.3965 16.2012C21.8066 16.709 22.2542 17.0866 22.7393 17.334C23.2243 17.5814 23.8021 17.7051 24.4727 17.7051C25.2148 17.7051 25.8659 17.5505 26.4258 17.2412C26.9857 16.9319 27.4202 16.4941 27.7295 15.9277C28.0388 15.3613 28.1934 14.6972 28.1934 13.9355C28.1934 13.4472 28.1397 12.9232 28.0322 12.3633C27.9248 11.8034 27.7767 11.2077 27.5879 10.5762C27.3926 9.90561 27.1517 9.17643 26.8652 8.38867C26.5787 7.60091 26.2711 6.80501 25.9424 6.00098C25.6136 5.19694 25.2832 4.44336 24.9512 3.74023C24.6712 3.1543 24.4075 2.66602 24.1602 2.27539C23.9128 1.88476 23.5987 1.56575 23.2178 1.31836C22.8369 1.07096 22.3014 0.869141 21.6113 0.712891C20.6934 0.504558 19.6029 0.335287 18.3398 0.205078C17.0768 0.0748698 15.6641 0.00976562 14.1016 0.00976562C12.5391 0.00976562 11.1247 0.0748698 9.8584 0.205078C8.59212 0.335287 7.5 0.504558 6.58203 0.712891C5.89193 0.869141 5.35645 1.07096 4.97559 1.31836C4.59473 1.56575 4.2806 1.88476 4.0332 2.27539C3.78581 2.66602 3.52214 3.1543 3.24219 3.74023C2.91016 4.44336 2.57975 5.19694 2.25098 6.00098C1.9222 6.80501 1.61458 7.60091 1.32812 8.38867C1.04167 9.17643 0.800782 9.90561 0.605469 10.5762C0.416667 11.2077 0.268555 11.8034 0.161133 12.3633C0.053711 12.9232 0 13.4472 0 13.9355C0 14.6972 0.154622 15.3613 0.463867 15.9277C0.773112 16.4941 1.20768 16.9319 1.76758 17.2412C2.32747 17.5505 2.97851 17.7051 3.7207 17.7051Z" fill="#D6001C"/>
</svg>
